<svg xmlns="http://www.w3.org/2000/svg" width="158.31" height="35" viewBox="0 0 158.31 35"><rect class="svg__rect" x="0" y="0" width="64.89" height="35" fill="#31C4F3"/><rect class="svg__rect" x="62.89" y="0" width="95.41999999999999" height="35" fill="#389AD5"/><path class="svg__text" d="M14.08 19.16L14.08 19.16L14.08 13.47L15.56 13.47L15.56 19.18Q15.56 20.03 15.99 20.48Q16.43 20.93 17.27 20.93L17.27 20.93Q18.98 20.93 18.98 19.13L18.98 19.13L18.98 13.47L20.46 13.47L20.46 19.17Q20.46 20.53 19.59 21.32Q18.72 22.12 17.27 22.12L17.27 22.12Q15.81 22.12 14.94 21.33Q14.08 20.55 14.08 19.16ZM24.59 19.42L24.59 19.42L26.08 19.42Q26.08 20.15 26.56 20.55Q27.04 20.95 27.93 20.95L27.93 20.95Q28.71 20.95 29.10 20.63Q29.49 20.32 29.49 19.80L29.49 19.80Q29.49 19.24 29.09 18.94Q28.70 18.63 27.66 18.32Q26.63 18.01 26.02 17.63L26.02 17.63Q24.86 16.90 24.86 15.72L24.86 15.72Q24.86 14.69 25.70 14.02Q26.54 13.35 27.88 13.35L27.88 13.35Q28.77 13.35 29.47 13.68Q30.17 14.01 30.56 14.61Q30.96 15.22 30.96 15.96L30.96 15.96L29.49 15.96Q29.49 15.29 29.07 14.91Q28.65 14.54 27.87 14.54L27.87 14.54Q27.14 14.54 26.74 14.85Q26.34 15.16 26.34 15.71L26.34 15.71Q26.34 16.18 26.77 16.50Q27.21 16.81 28.20 17.10Q29.20 17.40 29.80 17.78Q30.41 18.16 30.69 18.65Q30.97 19.13 30.97 19.79L30.97 19.79Q30.97 20.86 30.15 21.49Q29.33 22.12 27.93 22.12L27.93 22.12Q27.01 22.12 26.23 21.77Q25.46 21.43 25.02 20.83Q24.59 20.22 24.59 19.42ZM40.84 22L35.26 22L35.26 13.47L40.80 13.47L40.80 14.66L36.74 14.66L36.74 17.02L40.24 17.02L40.24 18.19L36.74 18.19L36.74 20.82L40.84 20.82L40.84 22ZM44.60 19.42L44.60 19.42L46.08 19.42Q46.08 20.15 46.56 20.55Q47.04 20.95 47.94 20.95L47.94 20.95Q48.71 20.95 49.10 20.63Q49.49 20.32 49.49 19.80L49.49 19.80Q49.49 19.24 49.10 18.94Q48.70 18.63 47.67 18.32Q46.64 18.01 46.03 17.63L46.03 17.63Q44.86 16.90 44.86 15.72L44.86 15.72Q44.86 14.69 45.70 14.02Q46.54 13.35 47.89 13.35L47.89 13.35Q48.78 13.35 49.47 13.68Q50.17 14.01 50.57 14.61Q50.97 15.22 50.97 15.96L50.97 15.96L49.49 15.96Q49.49 15.29 49.07 14.91Q48.65 14.54 47.87 14.54L47.87 14.54Q47.15 14.54 46.75 14.85Q46.34 15.16 46.34 15.71L46.34 15.71Q46.34 16.18 46.78 16.50Q47.21 16.81 48.21 17.10Q49.20 17.40 49.81 17.78Q50.41 18.16 50.69 18.65Q50.97 19.13 50.97 19.79L50.97 19.79Q50.97 20.86 50.16 21.49Q49.34 22.12 47.94 22.12L47.94 22.12Q47.01 22.12 46.24 21.77Q45.46 21.43 45.03 20.83Q44.60 20.22 44.60 19.42Z" fill="#FFFFFF"/><path class="svg__text" d="M76.00 20.93L76.00 20.93L77.29 19.40Q77.96 20.27 78.74 20.27L78.74 20.27Q78.74 20.27 78.75 20.27L78.75 20.27Q79.26 20.27 79.53 19.96Q79.80 19.65 79.80 19.05L79.80 19.05L79.80 15.44L76.90 15.44L76.90 13.60L82.16 13.60L82.16 18.91Q82.16 20.54 81.33 21.36Q80.51 22.17 78.92 22.17L78.92 22.17Q77.99 22.17 77.24 21.85Q76.48 21.53 76.00 20.93ZM86.82 17.80L86.82 17.80Q86.82 16.55 87.42 15.55Q88.02 14.56 89.09 14.00Q90.15 13.43 91.48 13.43L91.48 13.43Q92.81 13.43 93.87 14.00Q94.94 14.56 95.54 15.55Q96.15 16.55 96.15 17.80L96.15 17.80Q96.15 19.22 95.38 20.30Q94.60 21.39 93.30 21.85L93.30 21.85Q93.54 22.12 93.77 22.23Q94.00 22.33 94.28 22.33L94.28 22.33Q94.98 22.33 95.55 21.75L95.55 21.75L96.58 22.97Q96.16 23.49 95.56 23.76Q94.95 24.03 94.23 24.03L94.23 24.03Q93.53 24.03 92.97 23.85Q92.41 23.67 91.83 23.25Q91.26 22.84 90.56 22.09L90.56 22.09Q89.47 21.91 88.61 21.31Q87.76 20.72 87.29 19.81Q86.82 18.89 86.82 17.80ZM89.21 17.80L89.21 17.80Q89.21 18.51 89.51 19.05Q89.82 19.60 90.33 19.90Q90.85 20.20 91.48 20.20L91.48 20.20Q92.12 20.20 92.63 19.90Q93.15 19.60 93.45 19.05Q93.75 18.51 93.75 17.80L93.75 17.80Q93.75 17.09 93.45 16.54Q93.15 16 92.63 15.70Q92.12 15.40 91.48 15.40L91.48 15.40Q90.84 15.40 90.33 15.70Q89.82 16 89.51 16.54Q89.21 17.09 89.21 17.80ZM100.81 18.26L100.81 18.26L100.81 13.60L103.19 13.60L103.19 18.19Q103.19 20.20 104.78 20.20L104.78 20.20Q106.36 20.20 106.36 18.19L106.36 18.19L106.36 13.60L108.71 13.60L108.71 18.26Q108.71 20.13 107.67 21.15Q106.63 22.17 104.76 22.17L104.76 22.17Q102.88 22.17 101.85 21.15Q100.81 20.13 100.81 18.26ZM120.54 22L113.79 22L113.79 13.60L120.38 13.60L120.38 15.44L116.15 15.44L116.15 16.85L119.88 16.85L119.88 18.63L116.15 18.63L116.15 20.17L120.54 20.17L120.54 22ZM127.72 22L125.34 22L125.34 13.60L129.19 13.60Q130.33 13.60 131.17 13.98Q132.00 14.35 132.46 15.06Q132.92 15.76 132.92 16.71L132.92 16.71Q132.92 17.62 132.49 18.30Q132.06 18.98 131.27 19.36L131.27 19.36L133.08 22L130.54 22L129.02 19.77L127.72 19.77L127.72 22ZM127.72 15.47L127.72 17.93L129.04 17.93Q129.77 17.93 130.14 17.61Q130.52 17.29 130.52 16.71L130.52 16.71Q130.52 16.12 130.14 15.79Q129.77 15.47 129.04 15.47L129.04 15.47L127.72 15.47ZM139.83 18.95L136.63 13.60L139.13 13.60L141.13 16.94L143.12 13.60L145.42 13.60L142.20 18.99L142.20 22L139.83 22L139.83 18.95Z" fill="#FFFFFF" x="75.89"/></svg>